<svg id="svg" version="1.1" xmlns="http://www.w3.org/2000/svg" xmlns:xlink="http://www.w3.org/1999/xlink" width="400" height="400" viewBox="0, 0, 400,400"><g id="svgg"><path id="path0" d="M54.000 41.967 C 43.872 42.249,43.243 42.428,42.554 45.212 C 41.968 47.579,41.965 49.010,42.235 196.800 C 42.401 287.745,42.341 323.930,42.019 327.400 C 41.715 330.676,41.680 335.757,41.909 343.400 C 42.281 355.849,42.452 356.700,44.700 357.344 C 45.415 357.548,46.000 357.870,46.000 358.058 C 46.000 358.247,115.231 358.400,200.600 358.400 C 337.756 358.400,355.200 358.332,355.200 357.800 C 355.200 357.427,355.578 357.200,356.200 357.200 C 357.000 357.200,357.200 357.000,357.200 356.200 C 357.200 355.578,357.427 355.200,357.800 355.200 C 358.332 355.200,358.400 337.756,358.400 200.600 C 358.400 115.231,358.247 46.000,358.058 46.000 C 357.870 46.000,357.548 45.415,357.344 44.700 C 356.700 42.452,355.849 42.281,343.400 41.909 C 335.757 41.680,330.676 41.715,327.400 42.019 C 322.866 42.440,78.823 42.317,67.000 41.887 C 64.580 41.800,58.730 41.835,54.000 41.967 M208.400 200.200 L 208.400 275.200 200.000 275.200 L 191.600 275.200 191.600 200.200 L 191.600 125.200 200.000 125.200 L 208.400 125.200 208.400 200.200 M142.400 225.133 C 142.400 252.597,142.325 275.142,142.234 275.233 C 142.143 275.325,138.273 275.348,133.634 275.285 L 125.200 275.169 125.200 225.185 L 125.200 175.200 133.800 175.200 L 142.400 175.200 142.400 225.133 M275.200 250.200 L 275.200 275.200 266.800 275.200 L 258.400 275.200 258.400 250.200 L 258.400 225.200 266.800 225.200 L 275.200 225.200 275.200 250.200 " stroke="none" fill="#5c64f4" fill-rule="evenodd"></path><path id="path1" d="M72.600 42.018 C 75.214 42.426,324.786 42.426,327.400 42.018 C 328.500 41.847,271.170 41.707,200.000 41.707 C 128.830 41.707,71.500 41.847,72.600 42.018 M41.707 200.000 C 41.707 271.170,41.847 328.500,42.018 327.400 C 42.426 324.786,42.426 75.214,42.018 72.600 C 41.847 71.500,41.707 128.830,41.707 200.000 M141.600 225.424 C 141.600 258.804,141.734 275.564,142.000 275.400 C 142.263 275.237,142.400 258.063,142.400 225.176 C 142.400 192.125,142.265 175.200,142.000 175.200 C 141.735 175.200,141.600 192.208,141.600 225.424 " stroke="none" fill="#6064f4" fill-rule="evenodd"></path><path id="path2" d="M72.600 42.018 C 75.214 42.426,324.786 42.426,327.400 42.018 C 328.500 41.847,271.170 41.707,200.000 41.707 C 128.830 41.707,71.500 41.847,72.600 42.018 M41.707 200.000 C 41.707 271.170,41.847 328.500,42.018 327.400 C 42.426 324.786,42.426 75.214,42.018 72.600 C 41.847 71.500,41.707 128.830,41.707 200.000 M141.600 225.424 C 141.600 258.804,141.734 275.564,142.000 275.400 C 142.263 275.237,142.400 258.063,142.400 225.176 C 142.400 192.125,142.265 175.200,142.000 175.200 C 141.735 175.200,141.600 192.208,141.600 225.424 " stroke="none" fill="#6064f4" fill-rule="evenodd"></path><path id="path3" d="M72.600 42.018 C 75.214 42.426,324.786 42.426,327.400 42.018 C 328.500 41.847,271.170 41.707,200.000 41.707 C 128.830 41.707,71.500 41.847,72.600 42.018 M41.707 200.000 C 41.707 271.170,41.847 328.500,42.018 327.400 C 42.426 324.786,42.426 75.214,42.018 72.600 C 41.847 71.500,41.707 128.830,41.707 200.000 M141.600 225.424 C 141.600 258.804,141.734 275.564,142.000 275.400 C 142.263 275.237,142.400 258.063,142.400 225.176 C 142.400 192.125,142.265 175.200,142.000 175.200 C 141.735 175.200,141.600 192.208,141.600 225.424 " stroke="none" fill="#6064f4" fill-rule="evenodd"></path><path id="path4" d="M72.600 42.018 C 75.214 42.426,324.786 42.426,327.400 42.018 C 328.500 41.847,271.170 41.707,200.000 41.707 C 128.830 41.707,71.500 41.847,72.600 42.018 M41.707 200.000 C 41.707 271.170,41.847 328.500,42.018 327.400 C 42.426 324.786,42.426 75.214,42.018 72.600 C 41.847 71.500,41.707 128.830,41.707 200.000 M141.600 225.424 C 141.600 258.804,141.734 275.564,142.000 275.400 C 142.263 275.237,142.400 258.063,142.400 225.176 C 142.400 192.125,142.265 175.200,142.000 175.200 C 141.735 175.200,141.600 192.208,141.600 225.424 " stroke="none" fill="#6064f4" fill-rule="evenodd"></path></g></svg>